<svg id="Capa_1" data-name="Capa 1" xmlns="http://www.w3.org/2000/svg" viewBox="0 0 100 100">
  <defs>
    <style>
      .cls-1 {
        fill: #fff;
      }
    </style>
  </defs>
  <title>m</title>
  <g>
    <rect class="cls-1" x="18" y="31.11" width="75" height="4" rx="2" ry="2"/>
    <rect class="cls-1" x="18" y="44.11" width="75" height="4" rx="2" ry="2"/>
    <rect class="cls-1" x="18" y="57.11" width="75" height="4" rx="2" ry="2"/>
    <rect class="cls-1" x="18" y="70.11" width="75" height="4" rx="2" ry="2"/>
    <path class="cls-1" d="M13.55,32.39a.83.83,0,0,1,0,1.43l-2.66,1.53L8.24,36.89A.83.83,0,0,1,7,36.17V30a.83.83,0,0,1,1.24-.72l2.66,1.53Z"/>
    <path class="cls-1" d="M13.55,45.39a.83.83,0,0,1,0,1.43l-2.66,1.53L8.24,49.89A.83.83,0,0,1,7,49.17V43a.83.83,0,0,1,1.24-.72l2.66,1.53Z"/>
    <path class="cls-1" d="M13.55,58.39a.83.83,0,0,1,0,1.43l-2.66,1.53L8.24,62.89A.83.83,0,0,1,7,62.17V56a.83.83,0,0,1,1.24-.72l2.66,1.53Z"/>
    <path class="cls-1" d="M13.55,71.39a.83.83,0,0,1,0,1.43l-2.66,1.53L8.24,75.89A.83.83,0,0,1,7,75.17V69a.83.83,0,0,1,1.24-.72l2.66,1.53Z"/>
  </g>
</svg>
