<svg id="Capa_1" data-name="Capa 1" xmlns="http://www.w3.org/2000/svg" viewBox="0 0 100 100">
  <defs>
    <style>
      .cls-1 {
        fill: #fff;
      }

      .cls-2, .cls-3 {
        fill: none;
        stroke: #fff;
        stroke-miterlimit: 10;
      }

      .cls-2 {
        stroke-width: 3px;
      }

      .cls-3 {
        stroke-width: 4px;
      }
    </style>
  </defs>
  <title>m</title>
  <g>
    <path class="cls-1" d="M95.5,7V93H4.5V7h91m1-2H3.5a1,1,0,0,0-1,1V94a1,1,0,0,0,1,1h93a1,1,0,0,0,1-1V6a1,1,0,0,0-1-1Z"/>
    <g>
      <rect class="cls-2" x="41" y="12.5" width="24" height="7" rx="1" ry="1"/>
      <rect class="cls-1" x="70" y="13" width="10" height="6" rx="1" ry="1"/>
      <rect class="cls-1" x="21" y="11" width="10" height="10" rx="1" ry="1"/>
      <line class="cls-3" x1="5" y1="28" x2="95" y2="28"/>
    </g>
    <g>
      <path class="cls-1" d="M93.5,6.5v87H6.5V6.5h87m3-4H3.5a1,1,0,0,0-1,1v93a1,1,0,0,0,1,1h93a1,1,0,0,0,1-1V3.5a1,1,0,0,0-1-1Z"/>
      <path class="cls-1" d="M82.5,6.5v87h-65V6.5h65m3-4h-71a1,1,0,0,0-1,1v93a1,1,0,0,0,1,1h71a1,1,0,0,0,1-1V3.5a1,1,0,0,0-1-1Z"/>
    </g>
  </g>
</svg>
