<svg id="Capa_1" data-name="Capa 1" xmlns="http://www.w3.org/2000/svg" viewBox="0 0 100 100">
  <defs>
    <style>
      .cls-1 {
        fill: #fff;
      }

      .cls-2 {
        fill: none;
        stroke: #fff;
        stroke-miterlimit: 10;
        stroke-width: 4px;
      }
    </style>
  </defs>
  <title>m</title>
  <g>
    <rect class="cls-1" x="20.19" y="43.5" width="13" height="4" rx="2" ry="2"/>
    <rect class="cls-1" x="20.19" y="51.5" width="13" height="4" rx="2" ry="2"/>
    <line class="cls-2" x1="8.97" y1="34.39" x2="44.42" y2="34.39"/>
    <line class="cls-2" x1="8.97" y1="65.5" x2="44.42" y2="65.5"/>
    <path class="cls-1" d="M41,25.5v49H12v-49H41m3-4H9a1,1,0,0,0-1,1v55a1,1,0,0,0,1,1H44a1,1,0,0,0,1-1v-55a1,1,0,0,0-1-1Z"/>
  </g>
  <g>
    <rect class="cls-1" x="67.19" y="43.5" width="13" height="4" rx="2" ry="2"/>
    <rect class="cls-1" x="67.19" y="51.5" width="13" height="4" rx="2" ry="2"/>
    <line class="cls-2" x1="55.97" y1="34.39" x2="91.42" y2="34.39"/>
    <line class="cls-2" x1="55.97" y1="65.5" x2="91.42" y2="65.5"/>
    <path class="cls-1" d="M88,25.5v49H59v-49H88m3-4H56a1,1,0,0,0-1,1v55a1,1,0,0,0,1,1H91a1,1,0,0,0,1-1v-55a1,1,0,0,0-1-1Z"/>
  </g>
</svg>
