<svg id="Capa_1" data-name="Capa 1" xmlns="http://www.w3.org/2000/svg" viewBox="0 0 100 100">
  <defs>
    <style>
      .cls-1 {
        fill: #fff;
      }
    </style>
  </defs>
  <title>d</title>
  <g>
    <path class="cls-1" d="M59.5,6.5v87h-19V6.5h19m3-4h-25a1,1,0,0,0-1,1v93a1,1,0,0,0,1,1h25a1,1,0,0,0,1-1V3.5a1,1,0,0,0-1-1Z"/>
    <path class="cls-1" d="M93.5,6.5v87h-19V6.5h19m3-4h-25a1,1,0,0,0-1,1v93a1,1,0,0,0,1,1h25a1,1,0,0,0,1-1V3.5a1,1,0,0,0-1-1Z"/>
    <path class="cls-1" d="M25.5,6.5v87H6.5V6.5h19m3-4H3.5a1,1,0,0,0-1,1v93a1,1,0,0,0,1,1h25a1,1,0,0,0,1-1V3.5a1,1,0,0,0-1-1Z"/>
  </g>
</svg>
