<svg id="Capa_1" data-name="Capa 1" xmlns="http://www.w3.org/2000/svg" viewBox="0 0 100 100">
  <defs>
    <style>
      .cls-1 {
        fill: #fff;
      }

      .cls-2 {
        fill: none;
        stroke: #fff;
        stroke-miterlimit: 10;
        stroke-width: 4px;
      }
    </style>
  </defs>
  <title>m</title>
  <g>
    <path class="cls-1" d="M93.5,24.5v51H6.5v-51h87m3-4H3.5a1,1,0,0,0-1,1v57a1,1,0,0,0,1,1h93a1,1,0,0,0,1-1v-57a1,1,0,0,0-1-1Z"/>
    <line class="cls-2" x1="4.5" y1="35.25" x2="94.5" y2="35.25"/>
    <line class="cls-2" x1="4.5" y1="50" x2="94.5" y2="50"/>
    <line class="cls-2" x1="4.5" y1="64.75" x2="94.5" y2="64.75"/>
    <line class="cls-2" x1="34.17" y1="20.5" x2="34.17" y2="79.5"/>
    <line class="cls-2" x1="65.83" y1="20.5" x2="65.83" y2="79.5"/>
  </g>
</svg>
