<svg id="Capa_1" data-name="Capa 1" xmlns="http://www.w3.org/2000/svg" viewBox="0 0 100 100">
  <defs>
    <style>
      .cls-1 {
        fill: #fff;
      }

      .cls-2 {
        fill: none;
        stroke: #fff;
        stroke-miterlimit: 10;
        stroke-width: 4px;
      }
    </style>
  </defs>
  <title>c</title>
  <g>
    <rect class="cls-1" x="34.01" y="13" width="31.98" height="10" rx="1" ry="1"/>
    <rect class="cls-1" x="22.5" y="31" width="55" height="4" rx="2" ry="2"/>
  </g>
  <line class="cls-2" x1="15" y1="45" x2="86" y2="45"/>
  <g>
    <path class="cls-1" d="M93.5,6.5v87H6.5V6.5h87m3-4H3.5a1,1,0,0,0-1,1v93a1,1,0,0,0,1,1h93a1,1,0,0,0,1-1V3.5a1,1,0,0,0-1-1Z"/>
    <path class="cls-1" d="M82.5,6.5v87h-65V6.5h65m3-4h-71a1,1,0,0,0-1,1v93a1,1,0,0,0,1,1h71a1,1,0,0,0,1-1V3.5a1,1,0,0,0-1-1Z"/>
  </g>
</svg>
