<svg id="Capa_1" data-name="Capa 1" xmlns="http://www.w3.org/2000/svg" viewBox="0 0 100 100">
  <defs>
    <style>
      .cls-1 {
        fill: #fff;
      }
    </style>
  </defs>
  <title>d</title>
  <g>
    <path class="cls-1" d="M68.5,50.25a9.5,9.5,0,1,0-9.5-9.5A9.51,9.51,0,0,0,68.5,50.25Zm0-15a5.5,5.5,0,1,1-5.5,5.5A5.51,5.51,0,0,1,68.5,35.25Z"/>
    <path class="cls-1" d="M91.5,21.75H8.5a1,1,0,0,0-1,1v54.5a1,1,0,0,0,1,1h83a1,1,0,0,0,1-1V22.75A1,1,0,0,0,91.5,21.75Zm-80,4h77V61.27l-7-4.87a14.58,14.58,0,0,0-18.31,1.27l-3.73,3.44L34.38,36.51a3,3,0,0,0-4.18-.08l-18.71,18Zm0,48.5V60l1.76-1.69L32.24,40l34.68,34,.2.2Zm77,0H72.84l-10-9.83-.51-.5,3.58-3.3a10.6,10.6,0,0,1,13.32-.92l8.35,5.8.94.65Z"/>
  </g>
</svg>
