<svg id="Capa_1" data-name="Capa 1" xmlns="http://www.w3.org/2000/svg" viewBox="0 0 100 100">
  <defs>
    <style>
      .cls-1 {
        fill: #fff;
      }
    </style>
  </defs>
  <title>m</title>
  <g>
    <g>
      <rect class="cls-1" x="20" y="31.11" width="73" height="4" rx="2" ry="2"/>
      <rect class="cls-1" x="20" y="44.11" width="73" height="4" rx="2" ry="2"/>
      <rect class="cls-1" x="20" y="57.11" width="73" height="4" rx="2" ry="2"/>
      <rect class="cls-1" x="20" y="70.11" width="73" height="4" rx="2" ry="2"/>
    </g>
    <g>
      <path class="cls-1" d="M11.11,31.6H10a.22.22,0,0,1-.21-.22v-.74a.33.33,0,0,1,.07-.18l1.71-1.34h1.08a.22.22,0,0,1,.21.22v7.53a.22.22,0,0,1-.21.22h-1.3a.22.22,0,0,1-.22-.22Z"/>
      <path class="cls-1" d="M15.29,35a1.14,1.14,0,0,1,1.13,1.12,1.13,1.13,0,0,1-1.13,1.1,1.12,1.12,0,0,1-1.1-1.1A1.13,1.13,0,0,1,15.29,35Z"/>
    </g>
    <g>
      <path class="cls-1" d="M8.11,49.64c.68-.89,2.41-3.25,3.11-4.3a1.72,1.72,0,0,0,.3-.89c0-.45-.38-.84-1-.84a1.68,1.68,0,0,0-1.14.59.23.23,0,0,1-.33,0l-.72-.73a.22.22,0,0,1,0-.3A3.37,3.37,0,0,1,10.65,42a2.41,2.41,0,0,1,2.66,2.37,3,3,0,0,1-.46,1.52c-.38.67-1.34,1.92-1.89,2.7H13a.23.23,0,0,1,.22.22v1.06a.23.23,0,0,1-.22.22H8.34a.22.22,0,0,1-.22-.22Z"/>
      <path class="cls-1" d="M15.29,48a1.14,1.14,0,0,1,1.13,1.12,1.13,1.13,0,0,1-1.13,1.1,1.12,1.12,0,0,1-1.1-1.1A1.13,1.13,0,0,1,15.29,48Z"/>
    </g>
    <g>
      <path class="cls-1" d="M8.17,61.88l.74-.74a.22.22,0,0,1,.29,0,2.81,2.81,0,0,0,1.29.54,1,1,0,0,0,1-.94c0-.52-.53-.95-1.39-.95H9.46a.23.23,0,0,1-.22-.22v-1a.22.22,0,0,1,.22-.22h.66c.82,0,1.25-.4,1.25-.9a.91.91,0,0,0-.94-.88,1.33,1.33,0,0,0-1,.47.22.22,0,0,1-.32,0l-.72-.7a.21.21,0,0,1,0-.3,3.44,3.44,0,0,1,2.24-1,2.3,2.3,0,0,1,2.53,2.14A2.11,2.11,0,0,1,11.95,59v0a2.33,2.33,0,0,1,1.42,2c0,1.28-1.11,2.24-2.73,2.24a3,3,0,0,1-2.47-1A.23.23,0,0,1,8.17,61.88Z"/>
      <path class="cls-1" d="M15.29,61a1.14,1.14,0,0,1,1.13,1.12,1.13,1.13,0,0,1-1.13,1.1,1.12,1.12,0,0,1-1.1-1.1A1.13,1.13,0,0,1,15.29,61Z"/>
    </g>
    <g>
      <path class="cls-1" d="M7,74.22V73l4.09-4.91a.21.21,0,0,1,.18-.07h.84a.22.22,0,0,1,.22.22V73h.93a.21.21,0,0,1,.22.21v1a.22.22,0,0,1-.22.22h-.93v1.44a.23.23,0,0,1-.22.22H10.88a.23.23,0,0,1-.22-.22V74.45H7.22A.22.22,0,0,1,7,74.22ZM10.7,73V70.81L8.84,73Z"/>
      <path class="cls-1" d="M15.29,74a1.14,1.14,0,0,1,1.13,1.12,1.13,1.13,0,0,1-1.13,1.1,1.12,1.12,0,0,1-1.1-1.1A1.13,1.13,0,0,1,15.29,74Z"/>
    </g>
  </g>
</svg>
