<svg id="Capa_1" data-name="Capa 1" xmlns="http://www.w3.org/2000/svg" viewBox="0 0 100 100">
  <defs>
    <style>
      .cls-1 {
        fill: #fff;
      }
    </style>
  </defs>
  <title>M</title>
  <g>
    <path class="cls-1" d="M96.5,5H3.5a1,1,0,0,0-1,1V94a1,1,0,0,0,1,1h93a1,1,0,0,0,1-1V6A1,1,0,0,0,96.5,5Zm-1,88H4.5V7h91Z"/>
    <path class="cls-1" d="M15,73.2H83a1,1,0,0,0,1-1V36.58a5,5,0,1,0-6.84-5.78H15a1,1,0,0,0-1,1V72.2A1,1,0,0,0,15,73.2ZM79,31.8a2,2,0,1,1,0,.2C79,31.93,79,31.87,79,31.8Zm-63,1H77.08A5,5,0,0,0,82,37V71.2H16Z"/>
    <path class="cls-1" d="M73,39.26H25a1,1,0,0,0-1,1v5.5a1,1,0,0,0,1,1H73a1,1,0,0,0,1-1v-5.5A1,1,0,0,0,73,39.26Zm-1,5.5H26v-3.5H72Z"/>
    <path class="cls-1" d="M73,49.26H25a1,1,0,0,0-1,1v5.5a1,1,0,0,0,1,1H73a1,1,0,0,0,1-1v-5.5A1,1,0,0,0,73,49.26Zm-1,5.5H26v-3.5H72Z"/>
    <rect class="cls-1" x="24" y="59.74" width="17.65" height="5" rx="1" ry="1"/>
  </g>
</svg>
