<svg id="Capa_1" data-name="Capa 1" xmlns="http://www.w3.org/2000/svg" viewBox="0 0 100 100">
  <defs>
    <style>
      .cls-1 {
        fill: #fff;
      }
    </style>
  </defs>
  <title>d</title>
  <g>
    <path class="cls-1" d="M91.5,19.75H8.5a1,1,0,0,0-1,1v45a1,1,0,0,0,1,1h83a1,1,0,0,0,1-1v-45A1,1,0,0,0,91.5,19.75Zm-3,43h-77v-39h77Z"/>
    <path class="cls-1" d="M40.07,54.23a2.86,2.86,0,0,0,1.7,2,2.93,2.93,0,0,0,1.14.23,2.66,2.66,0,0,0,1.42-.4L61.75,45.65A2.87,2.87,0,0,0,63,43.23a2.9,2.9,0,0,0-1.33-2.46L44.34,30.36a2.82,2.82,0,0,0-2-.37h0A2.91,2.91,0,0,0,40,32.83V53.59A2.81,2.81,0,0,0,40,54,2,2,0,0,0,40.07,54.23ZM58,43.23l-14,8.4V34.84Z"/>
    <path class="cls-1" d="M88,74.25H31.65a6,6,0,0,0-11.3,0H12a2,2,0,0,0,0,4h8.35a6,6,0,0,0,11.3,0H88a2,2,0,0,0,0-4Zm-60,2a2,2,0,1,1-2-2A2,2,0,0,1,28,76.25Z"/>
  </g>
</svg>
