<svg id="Capa_1" data-name="Capa 1" xmlns="http://www.w3.org/2000/svg" viewBox="0 0 100 100">
  <defs>
    <style>
      .cls-1 {
        fill: #fff;
      }
    </style>
  </defs>
  <title>M</title>
  <g>
    <path class="cls-1" d="M96.5,5H3.5a1,1,0,0,0-1,1V94a1,1,0,0,0,1,1h93a1,1,0,0,0,1-1V6A1,1,0,0,0,96.5,5Zm-1,88H4.5V7h91Z"/>
    <path class="cls-1" d="M15,73.2H83a1,1,0,0,0,1-1V36.58a5,5,0,1,0-6.84-5.78H15a1,1,0,0,0-1,1V72.2A1,1,0,0,0,15,73.2ZM79,31.8a2,2,0,1,1,0,.2C79,31.93,79,31.87,79,31.8Zm-63,1H77.08A5,5,0,0,0,82,37V71.2H16Z"/>
    <path class="cls-1" d="M73.18,42.44H24.82a.82.82,0,0,0,0,1.65H73.18a.82.82,0,0,0,0-1.65Z"/>
    <path class="cls-1" d="M73.18,48.44H24.82a.82.82,0,0,0,0,1.65H73.18a.82.82,0,0,0,0-1.65Z"/>
    <path class="cls-1" d="M73.18,54.44H24.82a.82.82,0,0,0,0,1.65H73.18a.82.82,0,0,0,0-1.65Z"/>
    <path class="cls-1" d="M73.18,60.44H24.82a.82.82,0,0,0,0,1.65H73.18a.82.82,0,0,0,0-1.65Z"/>
  </g>
</svg>
