<svg id="Capa_1" data-name="Capa 1" xmlns="http://www.w3.org/2000/svg" viewBox="0 0 100 100">
  <defs>
    <style>
      .cls-1 {
        fill: #fff;
      }
    </style>
  </defs>
  <title>d</title>
  <g>
    <path class="cls-1" d="M55.83,19V81H17.5V19H55.83m3-4H14.5a1,1,0,0,0-1,1V84a1,1,0,0,0,1,1H58.83a1,1,0,0,0,1-1V16a1,1,0,0,0-1-1Z"/>
    <path class="cls-1" d="M82.5,19V81H70.83V19H82.5m3-4H67.83a1,1,0,0,0-1,1V84a1,1,0,0,0,1,1H85.5a1,1,0,0,0,1-1V16a1,1,0,0,0-1-1Z"/>
    <path class="cls-1" d="M93.5,6.5v87H6.5V6.5h87m3-4H3.5a1,1,0,0,0-1,1v93a1,1,0,0,0,1,1h93a1,1,0,0,0,1-1V3.5a1,1,0,0,0-1-1Z"/>
  </g>
</svg>
