<svg id="Capa_1" data-name="Capa 1" xmlns="http://www.w3.org/2000/svg" viewBox="0 0 100 100">
  <defs>
    <style>
      .cls-1 {
        fill: #fff;
      }
    </style>
  </defs>
  <title>d</title>
  <g>
    <path class="cls-1" d="M93.5,6.5v87H83V6.5H93.5m3-4H80a1,1,0,0,0-1,1v93a1,1,0,0,0,1,1H96.5a1,1,0,0,0,1-1V3.5a1,1,0,0,0-1-1Z"/>
    <path class="cls-1" d="M17,6.5v87H6.5V6.5H17m3-4H3.5a1,1,0,0,0-1,1v93a1,1,0,0,0,1,1H20a1,1,0,0,0,1-1V3.5a1,1,0,0,0-1-1Z"/>
    <g>
      <path class="cls-1" d="M67.75,6.5v87H57.25V6.5h10.5m3-4H54.25a1,1,0,0,0-1,1v93a1,1,0,0,0,1,1h16.5a1,1,0,0,0,1-1V3.5a1,1,0,0,0-1-1Z"/>
      <path class="cls-1" d="M42.75,6.5v87H32.25V6.5h10.5m3-4H29.25a1,1,0,0,0-1,1v93a1,1,0,0,0,1,1h16.5a1,1,0,0,0,1-1V3.5a1,1,0,0,0-1-1Z"/>
    </g>
  </g>
</svg>
