<svg id="Capa_1" data-name="Capa 1" xmlns="http://www.w3.org/2000/svg" viewBox="0 0 100 100">
  <defs>
    <style>
      .cls-1 {
        fill: #fff;
      }
    </style>
  </defs>
  <title>d</title>
  <g>
    <path class="cls-1" d="M74.5,35.25a9.5,9.5,0,1,0-9.5-9.5A9.51,9.51,0,0,0,74.5,35.25Zm0-15a5.5,5.5,0,1,1-5.5,5.5A5.51,5.51,0,0,1,74.5,20.25Z"/>
    <path class="cls-1" d="M91.5,9.75H8.5a1,1,0,0,0-1,1v54.5a1,1,0,0,0,1,1h83a1,1,0,0,0,1-1V10.75A1,1,0,0,0,91.5,9.75Zm-80,4h77V49.27L73.8,39.06a3,3,0,0,0-3.75.26l-10.6,9.79L34.38,24.51a3,3,0,0,0-4.18-.08l-18.71,18Zm0,48.5V48l1.76-1.69L32.24,28l34.68,34,.2.2Zm77,0H72.84l-10-9.83-.51-.5,9.87-9.11L87.56,53.49l.94.65Z"/>
    <path class="cls-1" d="M22.49,81.65A2.66,2.66,0,1,0,19.94,79,2.61,2.61,0,0,0,22.49,81.65Zm0-4.32A1.66,1.66,0,1,1,20.94,79,1.61,1.61,0,0,1,22.49,77.33Z"/>
    <path class="cls-1" d="M32.22,72.2H8.5a1,1,0,0,0-1,1V89.25a1,1,0,0,0,1,1H32.22a1,1,0,0,0,1-1V73.2A1,1,0,0,0,32.22,72.2Zm-21.72,3H30.22v10l-4.33-3.17a.76.76,0,0,0-1,.07l-3,2.93-6.76-7.2a.76.76,0,0,0-1.11,0L10.5,81.68Zm0,12.05V83.16l4.08-4.42,8,8.51H10.5Zm19.72,0H23.95l-1.34-1.42,0,0L25.46,83l4.32,3.16.44.33Z"/>
    <path class="cls-1" d="M81.77,81.65A2.66,2.66,0,1,0,79.23,79,2.61,2.61,0,0,0,81.77,81.65ZM83.32,79a1.55,1.55,0,1,1-1.54-1.66A1.61,1.61,0,0,1,83.32,79Z"/>
    <path class="cls-1" d="M91.5,72.2H67.78a1,1,0,0,0-1,1V89.25a1,1,0,0,0,1,1H91.5a1,1,0,0,0,1-1V73.2A1,1,0,0,0,91.5,72.2Zm-21.72,3H89.5v10l-4.33-3.17a.76.76,0,0,0-1,.07l-3,2.93-6.76-7.2a.76.76,0,0,0-1.11,0l-3.53,3.83Zm0,12.05V83.16l4.08-4.42,8,8.51H69.78Zm19.72,0H83.23l-1.34-1.42,0,0L84.74,83l4.32,3.16.44.33Z"/>
    <path class="cls-1" d="M52.13,81.65A2.66,2.66,0,1,0,49.59,79,2.61,2.61,0,0,0,52.13,81.65ZM53.68,79a1.55,1.55,0,1,1-1.54-1.66A1.61,1.61,0,0,1,53.68,79Z"/>
    <path class="cls-1" d="M61.86,72.2H38.14a1,1,0,0,0-1,1V89.25a1,1,0,0,0,1,1H61.86a1,1,0,0,0,1-1V73.2A1,1,0,0,0,61.86,72.2Zm-21.72,3H59.86v10l-4.33-3.17a.76.76,0,0,0-1,.07l-3,2.93-6.76-7.2a.77.77,0,0,0-1.11,0l-3.53,3.83Zm0,12.05V83.16l4.08-4.42,8,8.51H40.14Zm19.72,0H53.59l-1.34-1.42,0,0L55.1,83l4.32,3.16.44.33Z"/>
  </g>
</svg>
