<svg id="Capa_1" data-name="Capa 1" xmlns="http://www.w3.org/2000/svg" viewBox="0 0 100 100">
  <defs>
    <style>
      .cls-1 {
        fill: #fff;
      }
    </style>
  </defs>
  <title>d</title>
  <g>
    <path class="cls-1" d="M91.56,18.3a1,1,0,0,0-.26,0L77.7,21.83a13.57,13.57,0,0,0-27.07,0L35.83,18h0L8.19,25.12a.87.87,0,0,0-.69.82V89.62a.9.9,0,0,0,.94.86,1,1,0,0,0,.26,0l26.87-6.9a1,1,0,0,1,.51,0l28.08,7.21h0l27.65-7.1a.87.87,0,0,0,.69-.82V19.16A.9.9,0,0,0,91.56,18.3ZM88.5,80.37,66.17,86.11V50.31C69.65,43,73.25,35.77,76.68,28.47A16.13,16.13,0,0,0,77.36,26L88.5,23.18Zm-77-52,22.33-5.73V79.86L11.5,85.59Zm43.09-5.75a9.58,9.58,0,0,1,19.15,0c0,.06,0,.13,0,.19A13.52,13.52,0,0,1,73.49,25a13.1,13.1,0,0,1-.5,1.95l-.13.28c-1.92,4.08-3.93,8.21-5.87,12.21l-.82,1.69-2,4.14-.49-1L62.17,41.1q-3.35-6.95-6.69-13.9l-.14-.29a13.33,13.33,0,0,1-.5-1.94,13.52,13.52,0,0,1-.24-2.13C54.6,22.79,54.59,22.71,54.59,22.66Zm-16.76,0L51,26a16.32,16.32,0,0,0,.68,2.43q5.23,10.92,10.52,21.84v35.8L37.83,79.86Z"/>
    <path class="cls-1" d="M58.53,25.92a6.71,6.71,0,1,0-.87-2.29A6.62,6.62,0,0,0,58.53,25.92Zm5.63-6.06a2.61,2.61,0,1,1-2.61,2.61A2.61,2.61,0,0,1,64.17,19.86Z"/>
  </g>
</svg>
