<?xml version="1.0" encoding="utf-8"?>
<!-- Generator: Adobe Illustrator 21.0.2, SVG Export Plug-In . SVG Version: 6.00 Build 0)  -->
<svg version="1.1" id="Capa_1" xmlns="http://www.w3.org/2000/svg" xmlns:xlink="http://www.w3.org/1999/xlink" x="0px" y="0px"
	 viewBox="0 0 186 36" style="enable-background:new 0 0 186 36;" xml:space="preserve">
<style type="text/css">
	.st0{fill:#FFFFFF;}
</style>
<g>
	<path class="st0" d="M13.1,35.5C5.5,35.5,0,29.6,0,21.4c0-8,5.5-14,12.8-14C17,7.5,19,9,19.9,10V0h7.6v29.8c0,1.8,0.1,3.7,0.2,4.7
		v0.3h-7.3v-0.2c-0.1-0.4-0.2-1.2-0.2-2.1C18.6,34.4,16,35.5,13.1,35.5z M13.9,14.4c-3.7,0-6.2,2.8-6.2,7c0,4.3,2.4,7.1,6.2,7.1
		c3.7,0,6.1-2.9,6.1-7.2C20,17.1,17.6,14.4,13.9,14.4z"/>
	<path class="st0" d="M107,35.6c-8,0-14-6.1-14-14.2c0-8.2,5.9-14.2,14-14.2s14,6,14,14.2C121,29.5,115,35.6,107,35.6z M107,14.3
		c-3.2,0-6.3,2.2-6.3,7.1s3.3,7.1,6.3,7.1c3.2,0,6.3-2.2,6.3-7.1S110.1,14.3,107,14.3z"/>
	<path class="st0" d="M40.3,35.6c-6,0-9.3-4.2-9.3-8.2c0-4.4,3-7.5,8.1-8.2l6.4-1c1.5-0.2,1.7-1,1.7-1.6c0-1.9-1.6-3.1-4.1-3.1
		c-3.2,0-4.5,2.1-4.7,4v0.3l-6.9-1.5V16C32,11.6,36.1,7.1,43,7.1c10.5,0,11.7,7.2,11.7,10.2v12.9c0,1.4,0.2,3.2,0.3,4.1l0.1,0.4H48
		v-0.1c-0.1-0.5-0.2-1.5-0.3-2.3C46.6,33.8,44.3,35.6,40.3,35.6z M41.7,24c-1.1,0.2-3,0.8-3,3c0,1.4,1,2.7,3.1,2.7
		c2.5,0,5.4-1,5.4-5.8v-0.8L41.7,24z"/>
	<path class="st0" d="M137.5,35.6c-8,0-14-6.1-14-14.2c0-8.2,5.9-14.2,14-14.2s14,6,14,14.2C151.6,29.5,145.5,35.6,137.5,35.6z
		 M137.5,14.3c-3.2,0-6.3,2.2-6.3,7.1s3.3,7.1,6.3,7.1c3.2,0,6.3-2.2,6.3-7.1C143.9,16.5,140.7,14.3,137.5,14.3z"/>
	<polygon class="st0" points="82.1,34.9 82.1,21.1 66.2,21.1 66.2,34.9 58.3,34.9 58.3,0.4 66.2,0.4 66.2,13.6 82.1,13.6 82.1,0.4 
		90,0.4 90,34.9 	"/>
	<path class="st0" d="M175.9,35.6c-2.6,0-3.7-0.3-3.7-0.4c-4-1-5.7-3.6-5.7-3.8c-0.4-0.5-1.4-1.9-2.6-3.5l-0.5-0.7
		c-0.3,0.4-0.7,1-1.2,1.7c-1.3,2-3.2,4.7-3.8,5.7l-0.1,0.1h-8.5l9.2-13l-9.2-12.9h8.9l0.1,0.1c0.4,0.7,1.5,2.2,2.5,3.7
		c0.9,1.3,1.8,2.6,2.3,3.4l4.8-7.3h8.5l-9.2,12.9l-0.1,0.2c0.1,0.1,0.2,0.3,0.3,0.5c1.3,1.9,4.2,7.1,9,7.1c0.3,0,0.6,0,0.9-0.1
		c2-0.4,3.1-2.3,3.3-4.3c0-0.1,0-0.3,0-0.4c0-1.1-0.4-2.1-1-2.9l-3.5,3.6c-0.1,0.1-0.2,0.1-0.3,0.1h-0.1l-0.1-0.1
		c-0.2-0.1-0.3-0.3-0.2-0.5c1-3.7,1.3-10.9,1.3-11.8c0-0.2,0.1-0.4,0.3-0.5h0.1h0.1c0.1,0,0.2,0,0.3,0.1l4.4,4.4
		c0,0,3.7,3.2,3.7,8.2c0,0,0,0.4,0,0.8c-0.4,5.4-4.4,9.2-9.8,9.3L175.9,35.6L175.9,35.6z"/>
</g>
</svg>
