<?xml version="1.0" encoding="UTF-8" standalone="no"?>
<!DOCTYPE svg PUBLIC "-//W3C//DTD SVG 1.1//EN" "http://www.w3.org/Graphics/SVG/1.1/DTD/svg11.dtd">
<svg version="1.1" xmlns="http://www.w3.org/2000/svg" xmlns:xlink="http://www.w3.org/1999/xlink" preserveAspectRatio="xMidYMid meet" viewBox="5.764316971864597 -0.10172039915970776 149.67113436718972 39.40002679877743" width="145.67" height="35.4"><defs><path d="M28.04 7.85C28.04 7.85 28.04 7.85 28.04 7.85C29.63 8.8 30.71 10.52 30.79 12.51C30.89 15.61 28.46 18.23 25.36 18.35C22.41 18.45 11.95 10.89 12.42 23.35C12.46 24.9 11.25 26.23 9.7 26.26C8.15 26.33 6.83 25.12 6.77 23.57C6.63 19.31 22.25 4.31 28.04 7.85" id="d1ed3JAb5p"></path><path d="M28.04 7.85C28.04 7.85 28.04 7.85 28.04 7.85C29.63 8.8 30.71 10.52 30.79 12.51C30.89 15.61 28.46 18.23 25.36 18.35C22.41 18.45 11.95 10.89 12.42 23.35C12.46 24.9 11.25 26.23 9.7 26.26C8.15 26.33 6.83 25.12 6.77 23.57C6.63 19.31 22.25 4.31 28.04 7.85" id="a329g395g"></path><path d="M15.03 25.28C15.03 25.28 15.03 25.28 15.03 25.28C15.05 23.45 16.01 21.62 17.69 20.58C20.32 18.93 23.8 19.71 25.44 22.34C27.01 24.87 25.69 37.69 36.26 31.05C37.59 30.21 39.34 30.61 40.16 31.94C40.99 33.24 40.58 34.99 39.26 35.82C35.66 38.07 14.85 32.04 15.03 25.28" id="b4jLGd7n6h"></path><path d="M15.03 25.28C15.03 25.28 15.03 25.28 15.03 25.28C15.05 23.45 16.01 21.62 17.69 20.58C20.32 18.93 23.8 19.71 25.44 22.34C27.01 24.87 25.69 37.69 36.26 31.05C37.59 30.21 39.34 30.61 40.16 31.94C40.99 33.24 40.58 34.99 39.26 35.82C35.66 38.07 14.85 32.04 15.03 25.28" id="dn979cocL"></path><path d="M37.07 27.5C37.07 27.5 37.07 27.5 37.07 27.5C35.46 28.38 33.41 28.46 31.66 27.55C28.93 26.11 27.86 22.69 29.33 19.95C30.7 17.34 42.49 12.05 31.46 6.21C30.09 5.48 29.55 3.76 30.27 2.4C31 1.04 32.72 0.49 34.09 1.23C37.86 3.21 43.02 24.26 37.07 27.5" id="a1Uf4uH1dN"></path><path d="M37.07 27.5C37.07 27.5 37.07 27.5 37.07 27.5C35.46 28.38 33.41 28.46 31.66 27.55C28.93 26.11 27.86 22.69 29.33 19.95C30.7 17.34 42.49 12.05 31.46 6.21C30.09 5.48 29.55 3.76 30.27 2.4C31 1.04 32.72 0.49 34.09 1.23C37.86 3.21 43.02 24.26 37.07 27.5" id="b267r3SSSY"></path><path d="M52.18 12.26C53.28 12.26 54.2 11.35 54.2 10.24C54.2 9.11 53.28 8.22 52.18 8.22C51.05 8.22 50.17 9.11 50.17 10.24C50.17 11.35 51.05 12.26 52.18 12.26" id="cjQ35NnY"></path><path d="M52.18 12.26C53.28 12.26 54.2 11.35 54.2 10.24C54.2 9.11 53.28 8.22 52.18 8.22C51.05 8.22 50.17 9.11 50.17 10.24C50.17 11.35 51.05 12.26 52.18 12.26" id="e7nd7UoNWj"></path><path d="M66.6 17C66.6 17.13 66.59 17.31 66.55 17.53C66.53 17.73 66.5 17.95 66.46 18.18C66.42 18.42 66.39 18.64 66.33 18.86C66.3 19.08 66.26 19.27 66.23 19.42C66.12 19.92 65.59 22.45 64.62 27.02C64.22 27.02 60.96 27.02 60.55 27.02C61.51 22.52 62.04 20.02 62.15 19.53C62.18 19.26 62.23 18.97 62.28 18.68C62.34 18.38 62.35 18.17 62.35 18C62.35 17.6 62.26 17.27 62.06 17.02C61.84 16.8 61.53 16.67 61.1 16.67C60.75 16.67 60.39 16.77 60.01 16.99C59.62 17.2 59.26 17.49 58.95 17.86C58.61 18.22 58.32 18.63 58.06 19.09C57.81 19.55 57.63 20.04 57.54 20.53C57.45 20.96 56.99 23.12 56.18 27.02C55.92 27.02 54.62 27.02 52.28 27.02L54.93 13.88C57.36 13.88 58.71 13.88 58.99 13.88C58.65 15.39 58.46 16.23 58.43 16.39C58.73 16 59.07 15.65 59.44 15.29C59.82 14.95 60.21 14.64 60.64 14.4C61.07 14.13 61.5 13.93 61.97 13.8C62.41 13.64 62.85 13.56 63.32 13.56C64.39 13.56 65.21 13.86 65.77 14.47C66.32 15.06 66.6 15.91 66.6 17" id="a9Ov31xPd"></path><path d="M66.6 17C66.6 17.13 66.59 17.31 66.55 17.53C66.53 17.73 66.5 17.95 66.46 18.18C66.42 18.42 66.39 18.64 66.33 18.86C66.3 19.08 66.26 19.27 66.23 19.42C66.12 19.92 65.59 22.45 64.62 27.02C64.22 27.02 60.96 27.02 60.55 27.02C61.51 22.52 62.04 20.02 62.15 19.53C62.18 19.26 62.23 18.97 62.28 18.68C62.34 18.38 62.35 18.17 62.35 18C62.35 17.6 62.26 17.27 62.06 17.02C61.84 16.8 61.53 16.67 61.1 16.67C60.75 16.67 60.39 16.77 60.01 16.99C59.62 17.2 59.26 17.49 58.95 17.86C58.61 18.22 58.32 18.63 58.06 19.09C57.81 19.55 57.63 20.04 57.54 20.53C57.45 20.96 56.99 23.12 56.18 27.02C55.92 27.02 54.62 27.02 52.28 27.02L54.93 13.88C57.36 13.88 58.71 13.88 58.99 13.88C58.65 15.39 58.46 16.23 58.43 16.39C58.73 16 59.07 15.65 59.44 15.29C59.82 14.95 60.21 14.64 60.64 14.4C61.07 14.13 61.5 13.93 61.97 13.8C62.41 13.64 62.85 13.56 63.32 13.56C64.39 13.56 65.21 13.86 65.77 14.47C66.32 15.06 66.6 15.91 66.6 17" id="bOdrxA9GZ"></path><path d="M46.75 27.02C48.12 20.51 48.88 16.89 49.03 16.17C49.29 14.73 48.97 14.56 48.45 13.88C48.77 13.88 50.41 13.88 53.36 13.88C53.36 13.88 53.36 13.88 53.36 13.88L50.61 27.02C48.3 27.02 47.01 27.02 46.75 27.02Z" id="btYKGclQZ"></path><path d="M46.75 27.02C48.12 20.51 48.88 16.89 49.03 16.17C49.29 14.73 48.97 14.56 48.45 13.88C48.77 13.88 50.41 13.88 53.36 13.88C53.36 13.88 53.36 13.88 53.36 13.88L50.61 27.02C48.3 27.02 47.01 27.02 46.75 27.02Z" id="b1Roqd2T42"></path><path d="M136.69 27.02C136.42 27.02 135.09 27.02 132.68 27.02L135.49 13.88L139.45 13.88C139.13 15.4 138.95 16.25 138.92 16.42C138.93 16.42 138.93 16.42 138.93 16.42C140.04 14.38 141.53 13.86 143.74 13.84C143.69 14.09 143.44 15.29 142.99 17.45C139.95 18.31 138.23 19.7 137.81 21.62C137.74 21.98 137.36 23.78 136.69 27.02Z" id="bfYndMhzW"></path><path d="M136.69 27.02C136.42 27.02 135.09 27.02 132.68 27.02L135.49 13.88L139.45 13.88C139.13 15.4 138.95 16.25 138.92 16.42C138.93 16.42 138.93 16.42 138.93 16.42C140.04 14.38 141.53 13.86 143.74 13.84C143.69 14.09 143.44 15.29 142.99 17.45C139.95 18.31 138.23 19.7 137.81 21.62C137.74 21.98 137.36 23.78 136.69 27.02Z" id="a3r8AeMkXJ"></path><path d="M129.54 13.95L129.88 14.01L130.05 14.04L130.2 14.08L130.35 14.12L130.64 14.21L130.78 14.27L130.91 14.33L131.05 14.38L131.16 14.45L131.29 14.51L131.41 14.58L131.51 14.65L131.62 14.72L131.73 14.8L131.83 14.87L131.92 14.95L132.02 15.04L132.1 15.12L132.26 15.3L132.33 15.39L132.41 15.49L132.47 15.59L132.53 15.68L132.59 15.79L132.64 15.89L132.68 15.99L132.72 16.09L132.81 16.31L132.85 16.42L132.87 16.53L132.91 16.64L132.93 16.74L132.95 16.85L132.97 16.96L132.98 17.08L132.99 17.18L132.99 17.42L132.87 18.28L132.65 19.03L132.32 19.67L131.9 20.21L131.41 20.66L130.87 21.03L130.27 21.32L129.65 21.54L129.01 21.71L128.36 21.82L127.73 21.89L127.12 21.93L126.79 21.94L126.46 21.95L126.15 21.95L125.88 21.94L125.61 21.94L125.38 21.93L125 21.93L124.87 21.94L124.76 21.96L124.7 21.98L124.68 22L124.68 22.25L124.69 22.31L124.69 22.37L124.72 22.62L124.79 22.88L124.82 22.94L124.84 23L124.87 23.07L124.89 23.12L124.92 23.18L124.99 23.29L125.03 23.35L125.07 23.41L125.12 23.45L125.21 23.56L125.26 23.61L125.32 23.66L125.37 23.71L125.43 23.76L125.49 23.8L125.56 23.84L125.62 23.89L125.84 23.99L125.92 24.03L125.99 24.06L126.07 24.09L126.15 24.11L126.24 24.14L126.33 24.16L126.51 24.2L126.6 24.21L126.7 24.23L126.8 24.24L126.9 24.25L127.01 24.25L127.12 24.25L127.55 24.25L127.87 24.25L128.19 24.24L128.51 24.22L128.83 24.2L129.14 24.18L129.47 24.16L129.78 24.13L130.11 24.1L130.42 24.08L130.75 24.06L131.06 24.04L130.5 26.93L130.22 26.94L129.93 26.96L129.37 26.97L129.09 26.97L128.8 26.98L128.52 26.99L127.97 26.99L127.69 27L126.53 27L126.46 27.01L126.32 27.01L126.24 27.02L126.01 27.01L125.79 27.01L125.56 26.99L125.34 26.97L125.14 26.95L124.93 26.91L124.73 26.88L124.54 26.83L124.16 26.72L123.99 26.66L123.81 26.59L123.65 26.52L123.49 26.45L123.18 26.29L123.03 26.2L122.89 26.11L122.75 26.02L122.62 25.92L122.49 25.81L122.26 25.6L122.14 25.48L122.03 25.36L121.93 25.24L121.75 24.98L121.66 24.85L121.5 24.58L121.35 24.29L121.29 24.15L121.23 23.99L121.17 23.84L121.08 23.52L120.98 23.03L120.95 22.86L120.93 22.69L120.9 22.53L120.9 22.35L120.89 22.17L120.88 22L120.88 21.56L120.89 21.29L120.9 21.03L120.93 20.77L121 20.26L121.11 19.76L121.17 19.52L121.32 19.03L121.41 18.79L121.5 18.55L121.6 18.32L121.71 18.09L121.81 17.86L122.05 17.43L122.32 17.01L122.46 16.82L122.61 16.63L122.76 16.44L122.92 16.26L123.01 16.17L123.1 16.07L123.18 15.98L123.27 15.9L123.37 15.81L123.46 15.73L123.55 15.64L123.65 15.55L123.75 15.48L123.85 15.4L124.05 15.26L124.03 15.1L124 14.97L123.97 14.85L123.92 14.73L123.88 14.63L123.81 14.52L123.75 14.42L123.68 14.32L123.6 14.22L123.52 14.11L123.43 14.01L123.34 13.88L128.6 13.88L129 13.9L129.54 13.95ZM127.56 16.45L127.33 16.5L127.12 16.57L127.09 16.59L127.02 16.63L126.99 16.64L126.75 16.77L126.52 16.91L126.29 17.09L126.08 17.29L125.88 17.5L125.7 17.73L125.52 17.99L125.37 18.26L125.24 18.55L125.12 18.86L125.02 19.17L124.94 19.49L125.4 19.5L125.93 19.52L126.52 19.53L127.12 19.49L127.94 19.33L128.64 18.98L129.12 18.37L129.3 17.45L129.28 17.25L129.22 17.05L129.12 16.87L128.97 16.71L128.78 16.57L128.56 16.47L128.31 16.42L128.03 16.39L127.79 16.41L127.56 16.45Z" id="a3fEtbMDA4"></path><path d="M129.54 13.95L129.88 14.01L130.05 14.04L130.2 14.08L130.35 14.12L130.64 14.21L130.78 14.27L130.91 14.33L131.05 14.38L131.16 14.45L131.29 14.51L131.41 14.58L131.51 14.65L131.62 14.72L131.73 14.8L131.83 14.87L131.92 14.95L132.02 15.04L132.1 15.12L132.26 15.3L132.33 15.39L132.41 15.49L132.47 15.59L132.53 15.68L132.59 15.79L132.64 15.89L132.68 15.99L132.72 16.09L132.81 16.31L132.85 16.42L132.87 16.53L132.91 16.64L132.93 16.74L132.95 16.85L132.97 16.96L132.98 17.08L132.99 17.18L132.99 17.42L132.87 18.28L132.65 19.03L132.32 19.67L131.9 20.21L131.41 20.66L130.87 21.03L130.27 21.32L129.65 21.54L129.01 21.71L128.36 21.82L127.73 21.89L127.12 21.93L126.79 21.94L126.46 21.95L126.15 21.95L125.88 21.94L125.61 21.94L125.38 21.93L125 21.93L124.87 21.94L124.76 21.96L124.7 21.98L124.68 22L124.68 22.25L124.69 22.31L124.69 22.37L124.72 22.62L124.79 22.88L124.82 22.94L124.84 23L124.87 23.07L124.89 23.12L124.92 23.18L124.99 23.29L125.03 23.35L125.07 23.41L125.12 23.45L125.21 23.56L125.26 23.61L125.32 23.66L125.37 23.71L125.43 23.76L125.49 23.8L125.56 23.84L125.62 23.89L125.84 23.99L125.92 24.03L125.99 24.06L126.07 24.09L126.15 24.11L126.24 24.14L126.33 24.16L126.51 24.2L126.6 24.21L126.7 24.23L126.8 24.24L126.9 24.25L127.01 24.25L127.12 24.25L127.55 24.25L127.87 24.25L128.19 24.24L128.51 24.22L128.83 24.2L129.14 24.18L129.47 24.16L129.78 24.13L130.11 24.1L130.42 24.08L130.75 24.06L131.06 24.04L130.5 26.93L130.22 26.94L129.93 26.96L129.37 26.97L129.09 26.97L128.8 26.98L128.52 26.99L127.97 26.99L127.69 27L126.53 27L126.46 27.01L126.32 27.01L126.24 27.02L126.01 27.01L125.79 27.01L125.56 26.99L125.34 26.97L125.14 26.95L124.93 26.91L124.73 26.88L124.54 26.83L124.16 26.72L123.99 26.66L123.81 26.59L123.65 26.52L123.49 26.45L123.18 26.29L123.03 26.2L122.89 26.11L122.75 26.02L122.62 25.92L122.49 25.81L122.26 25.6L122.14 25.48L122.03 25.36L121.93 25.24L121.75 24.98L121.66 24.85L121.5 24.58L121.35 24.29L121.29 24.15L121.23 23.99L121.17 23.84L121.08 23.52L120.98 23.03L120.95 22.86L120.93 22.69L120.9 22.53L120.9 22.35L120.89 22.17L120.88 22L120.88 21.56L120.89 21.29L120.9 21.03L120.93 20.77L121 20.26L121.11 19.76L121.17 19.52L121.32 19.03L121.41 18.79L121.5 18.55L121.6 18.32L121.71 18.09L121.81 17.86L122.05 17.43L122.32 17.01L122.46 16.82L122.61 16.63L122.76 16.44L122.92 16.26L123.01 16.17L123.1 16.07L123.18 15.98L123.27 15.9L123.37 15.81L123.46 15.73L123.55 15.64L123.65 15.55L123.75 15.48L123.85 15.4L124.05 15.26L124.03 15.1L124 14.97L123.97 14.85L123.92 14.73L123.88 14.63L123.81 14.52L123.75 14.42L123.68 14.32L123.6 14.22L123.52 14.11L123.43 14.01L123.34 13.88L128.6 13.88L129 13.9L129.54 13.95ZM127.56 16.45L127.33 16.5L127.12 16.57L127.09 16.59L127.02 16.63L126.99 16.64L126.75 16.77L126.52 16.91L126.29 17.09L126.08 17.29L125.88 17.5L125.7 17.73L125.52 17.99L125.37 18.26L125.24 18.55L125.12 18.86L125.02 19.17L124.94 19.49L125.4 19.5L125.93 19.52L126.52 19.53L127.12 19.49L127.94 19.33L128.64 18.98L129.12 18.37L129.3 17.45L129.28 17.25L129.22 17.05L129.12 16.87L128.97 16.71L128.78 16.57L128.56 16.47L128.31 16.42L128.03 16.39L127.79 16.41L127.56 16.45Z" id="aawaGt4BRR"></path><path d="M108.72 17C108.72 17.13 108.7 17.31 108.68 17.53C108.65 17.73 108.63 17.95 108.57 18.18C108.54 18.42 108.5 18.64 108.45 18.86C108.41 19.08 108.38 19.27 108.34 19.42C108.23 19.92 107.7 22.45 106.74 27.02C106.33 27.02 103.09 27.02 102.68 27.02C103.62 22.52 104.14 20.02 104.25 19.53C104.31 19.26 104.36 18.97 104.41 18.68C104.45 18.38 104.49 18.17 104.49 18C104.49 17.6 104.38 17.27 104.16 17.02C103.96 16.8 103.65 16.67 103.22 16.67C102.87 16.67 102.5 16.77 102.13 16.99C101.76 17.2 101.4 17.49 101.05 17.86C100.72 18.22 100.43 18.63 100.18 19.09C99.93 19.55 99.75 20.04 99.65 20.53C99.56 20.96 99.1 23.12 98.29 27.02C98.03 27.02 96.73 27.02 94.4 27.02L97.06 13.88C99.48 13.88 100.82 13.88 101.09 13.88C100.76 15.39 100.58 16.23 100.53 16.39C100.85 16 101.18 15.65 101.56 15.29C101.93 14.95 102.34 14.64 102.75 14.4C103.18 14.13 103.61 13.93 104.07 13.8C104.52 13.64 104.98 13.56 105.43 13.56C106.52 13.56 107.34 13.86 107.89 14.47C108.43 15.06 108.72 15.91 108.72 17" id="c2RuXT7g3I"></path><path d="M108.72 17C108.72 17.13 108.7 17.31 108.68 17.53C108.65 17.73 108.63 17.95 108.57 18.18C108.54 18.42 108.5 18.64 108.45 18.86C108.41 19.08 108.38 19.27 108.34 19.42C108.23 19.92 107.7 22.45 106.74 27.02C106.33 27.02 103.09 27.02 102.68 27.02C103.62 22.52 104.14 20.02 104.25 19.53C104.31 19.26 104.36 18.97 104.41 18.68C104.45 18.38 104.49 18.17 104.49 18C104.49 17.6 104.38 17.27 104.16 17.02C103.96 16.8 103.65 16.67 103.22 16.67C102.87 16.67 102.5 16.77 102.13 16.99C101.76 17.2 101.4 17.49 101.05 17.86C100.72 18.22 100.43 18.63 100.18 19.09C99.93 19.55 99.75 20.04 99.65 20.53C99.56 20.96 99.1 23.12 98.29 27.02C98.03 27.02 96.73 27.02 94.4 27.02L97.06 13.88C99.48 13.88 100.82 13.88 101.09 13.88C100.76 15.39 100.58 16.23 100.53 16.39C100.85 16 101.18 15.65 101.56 15.29C101.93 14.95 102.34 14.64 102.75 14.4C103.18 14.13 103.61 13.93 104.07 13.8C104.52 13.64 104.98 13.56 105.43 13.56C106.52 13.56 107.34 13.86 107.89 14.47C108.43 15.06 108.72 15.91 108.72 17" id="a4rt1JXpCl"></path><path d="M117.45 16.83C116.85 16.83 116.32 16.98 115.83 17.24C115.36 17.53 114.94 17.88 114.61 18.33C114.28 18.77 114.03 19.26 113.83 19.81C113.66 20.35 113.57 20.89 113.57 21.42C113.57 22.26 113.77 22.89 114.16 23.36C114.55 23.82 115.14 24.04 115.92 24.04C116.16 24.04 116.43 24.02 116.7 23.97C116.94 23.91 117.21 23.86 117.48 23.77C117.99 23.62 118.45 23.38 118.9 23.13C118.84 23.43 118.35 25.79 118.28 26.09C117.73 26.38 117.14 26.61 116.52 26.77C115.89 26.91 115.25 27 114.62 27C113.82 27 113.1 26.88 112.48 26.62C111.87 26.38 111.36 26.02 110.94 25.55C110.52 25.11 110.21 24.56 110 23.93C109.79 23.29 109.7 22.61 109.7 21.84C109.7 21.15 109.77 20.44 109.93 19.79C110.09 19.13 110.32 18.51 110.63 17.91C110.93 17.33 111.29 16.79 111.74 16.29C112.07 15.91 112.45 15.6 112.84 15.29C112.84 14.62 112.56 14.4 112.18 13.88C112.67 13.88 116.61 13.88 117.1 13.88C118.1 13.88 119.19 13.95 120.14 14.35C120.35 14.44 120.57 14.53 120.7 14.6C120.65 14.81 120.44 15.83 120.05 17.69C119.56 17.37 119.17 17.17 118.9 17.06C118.45 16.9 117.97 16.83 117.45 16.83Z" id="d2KS7dR7Yk"></path><path d="M117.45 16.83C116.85 16.83 116.32 16.98 115.83 17.24C115.36 17.53 114.94 17.88 114.61 18.33C114.28 18.77 114.03 19.26 113.83 19.81C113.66 20.35 113.57 20.89 113.57 21.42C113.57 22.26 113.77 22.89 114.16 23.36C114.55 23.82 115.14 24.04 115.92 24.04C116.16 24.04 116.43 24.02 116.7 23.97C116.94 23.91 117.21 23.86 117.48 23.77C117.99 23.62 118.45 23.38 118.9 23.13C118.84 23.43 118.35 25.79 118.28 26.09C117.73 26.38 117.14 26.61 116.52 26.77C115.89 26.91 115.25 27 114.62 27C113.82 27 113.1 26.88 112.48 26.62C111.87 26.38 111.36 26.02 110.94 25.55C110.52 25.11 110.21 24.56 110 23.93C109.79 23.29 109.7 22.61 109.7 21.84C109.7 21.15 109.77 20.44 109.93 19.79C110.09 19.13 110.32 18.51 110.63 17.91C110.93 17.33 111.29 16.79 111.74 16.29C112.07 15.91 112.45 15.6 112.84 15.29C112.84 14.62 112.56 14.4 112.18 13.88C112.67 13.88 116.61 13.88 117.1 13.88C118.1 13.88 119.19 13.95 120.14 14.35C120.35 14.44 120.57 14.53 120.7 14.6C120.65 14.81 120.44 15.83 120.05 17.69C119.56 17.37 119.17 17.17 118.9 17.06C118.45 16.9 117.97 16.83 117.45 16.83Z" id="b2pTXkzvr"></path><path d="M146 26.79C145.63 26.64 145.31 26.45 145.06 26.2C144.81 25.95 144.63 25.65 144.5 25.29C144.4 24.93 144.33 24.56 144.33 24.13C144.33 23.95 144.35 23.75 144.37 23.54C144.38 23.33 144.42 23.09 144.46 22.86C144.46 22.61 144.5 22.38 144.56 22.13C144.59 21.88 144.64 21.64 144.7 21.42C144.72 21.31 144.77 21.06 144.86 20.65C145.13 19.35 145.33 18.4 145.55 17.45C145.47 17.45 145.12 17.45 144.49 17.45C144.54 17.22 144.78 16.03 145.2 13.89L146.33 13.89C146.39 13.56 146.43 13.38 146.44 13.35C146.46 13.17 146.48 13.07 146.48 13.05C146.79 11.68 146.54 11.58 146.13 11.02C146.44 11.02 147.99 11.02 150.77 11.02C150.73 11.21 150.54 12.17 150.18 13.88L152.44 13.88L151.71 17.45C150.35 17.45 149.59 17.45 149.44 17.45C148.93 19.78 148.65 21.07 148.59 21.33C148.54 21.62 148.47 21.93 148.4 22.29C148.33 22.62 148.29 22.95 148.29 23.2C148.29 23.51 148.38 23.71 148.57 23.84C148.77 23.97 148.91 24.04 149.24 24.02C149.55 24 150.02 23.97 150.4 23.95C150.35 24.15 150.16 25.16 149.79 26.98C148.73 26.99 147.93 27 147.4 27C146.86 27 146.4 26.93 146 26.79Z" id="e22dXhC4GK"></path><path d="M146 26.79C145.63 26.64 145.31 26.45 145.06 26.2C144.81 25.95 144.63 25.65 144.5 25.29C144.4 24.93 144.33 24.56 144.33 24.13C144.33 23.95 144.35 23.75 144.37 23.54C144.38 23.33 144.42 23.09 144.46 22.86C144.46 22.61 144.5 22.38 144.56 22.13C144.59 21.88 144.64 21.64 144.7 21.42C144.72 21.31 144.77 21.06 144.86 20.65C145.13 19.35 145.33 18.4 145.55 17.45C145.47 17.45 145.12 17.45 144.49 17.45C144.54 17.22 144.78 16.03 145.2 13.89L146.33 13.89C146.39 13.56 146.43 13.38 146.44 13.35C146.46 13.17 146.48 13.07 146.48 13.05C146.79 11.68 146.54 11.58 146.13 11.02C146.44 11.02 147.99 11.02 150.77 11.02C150.73 11.21 150.54 12.17 150.18 13.88L152.44 13.88L151.71 17.45C150.35 17.45 149.59 17.45 149.44 17.45C148.93 19.78 148.65 21.07 148.59 21.33C148.54 21.62 148.47 21.93 148.4 22.29C148.33 22.62 148.29 22.95 148.29 23.2C148.29 23.51 148.38 23.71 148.57 23.84C148.77 23.97 148.91 24.04 149.24 24.02C149.55 24 150.02 23.97 150.4 23.95C150.35 24.15 150.16 25.16 149.79 26.98C148.73 26.99 147.93 27 147.4 27C146.86 27 146.4 26.93 146 26.79Z" id="a67EUPK56w"></path><path d="M89.2 13.88L89.47 13.91L89.99 13.98L90.25 14.03L90.49 14.09L90.72 14.16L90.96 14.24L91.16 14.33L91.38 14.42L91.78 14.64L91.97 14.75L92.33 15L92.65 15.29L92.8 15.45L92.94 15.62L93.07 15.79L93.19 15.96L93.31 16.15L93.42 16.34L93.52 16.54L93.7 16.95L93.78 17.18L93.84 17.4L93.95 17.87L93.98 18.1L94.02 18.36L94.06 18.86L94.06 19.33L94.05 19.52L94.03 19.91L94.01 20.11L93.96 20.51L93.93 20.71L93.89 20.91L93.86 21.12L93.8 21.33L93.76 21.53L93.7 21.72L93.64 21.92L93.5 22.32L93.43 22.51L93.34 22.7L93.26 22.89L93.08 23.27L92.98 23.46L92.88 23.65L92.77 23.83L92.65 24.01L92.52 24.18L92.4 24.36L92.27 24.53L92.14 24.7L91.99 24.87L91.69 25.17L91.53 25.33L91.18 25.6L91 25.73L90.82 25.86L90.62 25.98L90.43 26.1L90.22 26.21L90 26.31L89.79 26.4L89.56 26.49L89.33 26.57L89.09 26.64L88.94 26.7L88.62 26.79L88.45 26.82L88.29 26.85L88.12 26.88L87.95 26.9L87.77 26.93L87.6 26.95L87.49 26.96L87.39 26.97L87.07 26.99L86.95 26.99L86.84 27L86.62 27L86.02 26.98L85.73 26.96L85.45 26.92L85.19 26.88L84.93 26.81L84.68 26.75L84.44 26.68L84.2 26.59L83.98 26.5L83.76 26.4L83.55 26.29L83.36 26.17L83.17 26.05L83 25.92L82.83 25.78L82.66 25.63L82.51 25.48L82.37 25.32L82.23 25.16L82.1 24.98L81.98 24.79L81.76 24.42L81.67 24.21L81.59 24L81.51 23.79L81.44 23.57L81.38 23.35L81.32 23.13L81.28 22.9L81.2 22.44L81.19 22.19L81.17 21.71L81.18 21.5L81.18 21.3L81.21 20.89L81.23 20.69L81.26 20.48L81.29 20.27L81.32 20.07L81.37 19.86L81.4 19.65L81.45 19.45L81.5 19.25L81.56 19.04L81.62 18.84L81.76 18.45L81.84 18.25L81.92 18.06L82.01 17.86L82.1 17.67L82.2 17.49L82.31 17.3L82.42 17.12L82.54 16.95L82.66 16.77L82.79 16.61L82.92 16.44L83.05 16.27L83.19 16.1L83.33 15.94L83.64 15.64L83.81 15.49L83.97 15.36L84.15 15.22L84.33 15.1L84.52 14.97L84.71 14.85L84.91 14.73L85.32 14.54L85.54 14.44L85.76 14.35L85.99 14.27L86.22 14.19L86.36 14.15L86.52 14.1L86.66 14.08L86.81 14.04L87.12 13.99L87.28 13.96L87.44 13.93L87.6 13.92L87.71 13.91L87.94 13.89L88.05 13.88L88.17 13.87L88.4 13.87L88.52 13.86L88.63 13.86L88.92 13.87L89.2 13.88ZM87.95 16.85L87.77 16.88L87.6 16.91L87.43 16.98L87.26 17.06L87.09 17.15L86.92 17.26L86.63 17.5L86.37 17.77L86.13 18.07L85.91 18.4L85.71 18.76L85.54 19.14L85.39 19.54L85.26 19.97L85.17 20.4L85.09 20.83L85.06 21.27L85.04 21.71L85.08 22.23L85.18 22.69L85.34 23.09L85.56 23.43L85.85 23.7L86.17 23.89L86.53 24L86.92 24.04L87.1 24.03L87.27 24.01L87.44 23.98L87.6 23.95L87.79 23.89L87.98 23.81L88.15 23.72L88.31 23.62L88.61 23.38L88.88 23.11L89.11 22.81L89.33 22.49L89.53 22.13L89.7 21.75L89.83 21.35L89.95 20.93L90.05 20.49L90.11 20.06L90.16 19.62L90.17 19.18L90.16 18.93L90.13 18.69L90.09 18.46L90.04 18.24L89.97 18.03L89.89 17.83L89.78 17.65L89.67 17.48L89.55 17.34L89.42 17.21L89.26 17.09L89.09 17L88.91 16.92L88.72 16.87L88.52 16.84L88.29 16.83L88.12 16.83L87.95 16.85Z" id="bEW5gUFJC"></path><path d="M89.2 13.88L89.47 13.91L89.99 13.98L90.25 14.03L90.49 14.09L90.72 14.16L90.96 14.24L91.16 14.33L91.38 14.42L91.78 14.64L91.97 14.75L92.33 15L92.65 15.29L92.8 15.45L92.94 15.62L93.07 15.79L93.19 15.96L93.31 16.15L93.42 16.34L93.52 16.54L93.7 16.95L93.78 17.18L93.84 17.4L93.95 17.87L93.98 18.1L94.02 18.36L94.06 18.86L94.06 19.33L94.05 19.52L94.03 19.91L94.01 20.11L93.96 20.51L93.93 20.71L93.89 20.91L93.86 21.12L93.8 21.33L93.76 21.53L93.7 21.72L93.64 21.92L93.5 22.32L93.43 22.51L93.34 22.7L93.26 22.89L93.08 23.27L92.98 23.46L92.88 23.65L92.77 23.83L92.65 24.01L92.52 24.18L92.4 24.36L92.27 24.53L92.14 24.7L91.99 24.87L91.69 25.17L91.53 25.33L91.18 25.6L91 25.73L90.82 25.86L90.62 25.98L90.43 26.1L90.22 26.21L90 26.31L89.79 26.4L89.56 26.49L89.33 26.57L89.09 26.64L88.94 26.7L88.62 26.79L88.45 26.82L88.29 26.85L88.12 26.88L87.95 26.9L87.77 26.93L87.6 26.95L87.49 26.96L87.39 26.97L87.07 26.99L86.95 26.99L86.84 27L86.62 27L86.02 26.98L85.73 26.96L85.45 26.92L85.19 26.88L84.93 26.81L84.68 26.75L84.44 26.68L84.2 26.59L83.98 26.5L83.76 26.4L83.55 26.29L83.36 26.17L83.17 26.05L83 25.92L82.83 25.78L82.66 25.63L82.51 25.48L82.37 25.32L82.23 25.16L82.1 24.98L81.98 24.79L81.76 24.42L81.67 24.21L81.59 24L81.51 23.79L81.44 23.57L81.38 23.35L81.32 23.13L81.28 22.9L81.2 22.44L81.19 22.19L81.17 21.71L81.18 21.5L81.18 21.3L81.21 20.89L81.23 20.69L81.26 20.48L81.29 20.27L81.32 20.07L81.37 19.86L81.4 19.65L81.45 19.45L81.5 19.25L81.56 19.04L81.62 18.84L81.76 18.45L81.84 18.25L81.92 18.06L82.01 17.86L82.1 17.67L82.2 17.49L82.31 17.3L82.42 17.12L82.54 16.95L82.66 16.77L82.79 16.61L82.92 16.44L83.05 16.27L83.19 16.1L83.33 15.94L83.64 15.64L83.81 15.49L83.97 15.36L84.15 15.22L84.33 15.1L84.52 14.97L84.71 14.85L84.91 14.73L85.32 14.54L85.54 14.44L85.76 14.35L85.99 14.27L86.22 14.19L86.36 14.15L86.52 14.1L86.66 14.08L86.81 14.04L87.12 13.99L87.28 13.96L87.44 13.93L87.6 13.92L87.71 13.91L87.94 13.89L88.05 13.88L88.17 13.87L88.4 13.87L88.52 13.86L88.63 13.86L88.92 13.87L89.2 13.88ZM87.95 16.85L87.77 16.88L87.6 16.91L87.43 16.98L87.26 17.06L87.09 17.15L86.92 17.26L86.63 17.5L86.37 17.77L86.13 18.07L85.91 18.4L85.71 18.76L85.54 19.14L85.39 19.54L85.26 19.97L85.17 20.4L85.09 20.83L85.06 21.27L85.04 21.71L85.08 22.23L85.18 22.69L85.34 23.09L85.56 23.43L85.85 23.7L86.17 23.89L86.53 24L86.92 24.04L87.1 24.03L87.27 24.01L87.44 23.98L87.6 23.95L87.79 23.89L87.98 23.81L88.15 23.72L88.31 23.62L88.61 23.38L88.88 23.11L89.11 22.81L89.33 22.49L89.53 22.13L89.7 21.75L89.83 21.35L89.95 20.93L90.05 20.49L90.11 20.06L90.16 19.62L90.17 19.18L90.16 18.93L90.13 18.69L90.09 18.46L90.04 18.24L89.97 18.03L89.89 17.83L89.78 17.65L89.67 17.48L89.55 17.34L89.42 17.21L89.26 17.09L89.09 17L88.91 16.92L88.72 16.87L88.52 16.84L88.29 16.83L88.12 16.83L87.95 16.85Z" id="d55rfUZVFZ"></path><path d="M79.83 13.92C79.55 13.83 79.22 13.75 78.88 13.69C78.55 13.64 78.19 13.62 77.79 13.62C76.86 13.62 76.06 13.77 75.35 14.1C74.66 14.42 74.06 14.84 73.57 15.4C73.09 15.95 72.73 16.58 72.46 17.31C72.21 18.02 72.08 18.8 72.08 19.57C72.06 20.26 72.15 20.82 72.35 21.35C72.53 21.86 72.8 22.29 73.15 22.62C73.49 22.97 73.92 23.24 74.42 23.42C74.91 23.59 75.46 23.68 76.08 23.68C76.46 23.68 76.83 23.66 77.17 23.62C77.51 23.54 77.83 23.46 78.13 23.38C78.44 23.29 78.73 23.18 79.01 23.07C79.07 23.05 79.38 22.89 79.95 22.61C79.49 24.81 79.24 26.05 79.19 26.29C78.64 26.52 78.01 26.7 77.33 26.82C76.66 26.95 75.91 27.02 75.06 27.02C73.93 27.02 72.92 26.84 72.03 26.52C71.12 26.18 70.38 25.7 69.77 25.07C69.15 24.47 68.68 23.71 68.35 22.86C68.03 22 67.89 21.02 67.89 19.97C67.9 19.11 67.99 18.29 68.19 17.47C68.37 16.67 68.66 15.9 69.04 15.19C69.39 14.46 69.87 13.8 70.42 13.19C70.84 12.74 71.31 12.33 71.84 11.97C72.05 10.88 71.82 10.69 71.44 10.17C73.55 10.17 75.76 10.11 77.94 10.24C79.46 10.31 80.96 10.47 82.4 10.97C82.35 11.22 82.08 12.47 81.6 14.73C81.01 14.44 80.68 14.28 80.62 14.24C80.38 14.11 80.11 14.01 79.83 13.92Z" id="b9wWowpqu"></path><path d="M79.83 13.92C79.55 13.83 79.22 13.75 78.88 13.69C78.55 13.64 78.19 13.62 77.79 13.62C76.86 13.62 76.06 13.77 75.35 14.1C74.66 14.42 74.06 14.84 73.57 15.4C73.09 15.95 72.73 16.58 72.46 17.31C72.21 18.02 72.08 18.8 72.08 19.57C72.06 20.26 72.15 20.82 72.35 21.35C72.53 21.86 72.8 22.29 73.15 22.62C73.49 22.97 73.92 23.24 74.42 23.42C74.91 23.59 75.46 23.68 76.08 23.68C76.46 23.68 76.83 23.66 77.17 23.62C77.51 23.54 77.83 23.46 78.13 23.38C78.44 23.29 78.73 23.18 79.01 23.07C79.07 23.05 79.38 22.89 79.95 22.61C79.49 24.81 79.24 26.05 79.19 26.29C78.64 26.52 78.01 26.7 77.33 26.82C76.66 26.95 75.91 27.02 75.06 27.02C73.93 27.02 72.92 26.84 72.03 26.52C71.12 26.18 70.38 25.7 69.77 25.07C69.15 24.47 68.68 23.71 68.35 22.86C68.03 22 67.89 21.02 67.89 19.97C67.9 19.11 67.99 18.29 68.19 17.47C68.37 16.67 68.66 15.9 69.04 15.19C69.39 14.46 69.87 13.8 70.42 13.19C70.84 12.74 71.31 12.33 71.84 11.97C72.05 10.88 71.82 10.69 71.44 10.17C73.55 10.17 75.76 10.11 77.94 10.24C79.46 10.31 80.96 10.47 82.4 10.97C82.35 11.22 82.08 12.47 81.6 14.73C81.01 14.44 80.68 14.28 80.62 14.24C80.38 14.11 80.11 14.01 79.83 13.92Z" id="d5CFWUMqZY"></path></defs><g><g><use xlink:href="#d1ed3JAb5p" opacity="1" fill="#ffffff" fill-opacity="1"></use><g><use xlink:href="#d1ed3JAb5p" opacity="1" fill-opacity="0" stroke="#000000" stroke-width="1" stroke-opacity="0"></use></g></g><g><use xlink:href="#a329g395g" opacity="1" fill="#ffffff" fill-opacity="1"></use><g><use xlink:href="#a329g395g" opacity="1" fill-opacity="0" stroke="#000000" stroke-width="1" stroke-opacity="0"></use></g></g><g><use xlink:href="#b4jLGd7n6h" opacity="1" fill="#ffffff" fill-opacity="1"></use><g><use xlink:href="#b4jLGd7n6h" opacity="1" fill-opacity="0" stroke="#000000" stroke-width="1" stroke-opacity="0"></use></g></g><g><use xlink:href="#dn979cocL" opacity="1" fill="#ffffff" fill-opacity="1"></use><g><use xlink:href="#dn979cocL" opacity="1" fill-opacity="0" stroke="#000000" stroke-width="1" stroke-opacity="0"></use></g></g><g><use xlink:href="#a1Uf4uH1dN" opacity="1" fill="#ffffff" fill-opacity="1"></use><g><use xlink:href="#a1Uf4uH1dN" opacity="1" fill-opacity="0" stroke="#000000" stroke-width="1" stroke-opacity="0"></use></g></g><g><use xlink:href="#b267r3SSSY" opacity="1" fill="#ffffff" fill-opacity="1"></use><g><use xlink:href="#b267r3SSSY" opacity="1" fill-opacity="0" stroke="#000000" stroke-width="1" stroke-opacity="0"></use></g></g><g><use xlink:href="#cjQ35NnY" opacity="1" fill="#ffffff" fill-opacity="1"></use><g><use xlink:href="#cjQ35NnY" opacity="1" fill-opacity="0" stroke="#000000" stroke-width="1" stroke-opacity="0"></use></g></g><g><use xlink:href="#e7nd7UoNWj" opacity="1" fill="#ffffff" fill-opacity="1"></use><g><use xlink:href="#e7nd7UoNWj" opacity="1" fill-opacity="0" stroke="#000000" stroke-width="1" stroke-opacity="0"></use></g></g><g><use xlink:href="#a9Ov31xPd" opacity="1" fill="#ffffff" fill-opacity="1"></use><g><use xlink:href="#a9Ov31xPd" opacity="1" fill-opacity="0" stroke="#000000" stroke-width="1" stroke-opacity="0"></use></g></g><g><use xlink:href="#bOdrxA9GZ" opacity="1" fill="#ffffff" fill-opacity="1"></use><g><use xlink:href="#bOdrxA9GZ" opacity="1" fill-opacity="0" stroke="#000000" stroke-width="1" stroke-opacity="0"></use></g></g><g><use xlink:href="#btYKGclQZ" opacity="1" fill="#ffffff" fill-opacity="1"></use><g><use xlink:href="#btYKGclQZ" opacity="1" fill-opacity="0" stroke="#000000" stroke-width="1" stroke-opacity="0"></use></g></g><g><use xlink:href="#b1Roqd2T42" opacity="1" fill="#ffffff" fill-opacity="1"></use><g><use xlink:href="#b1Roqd2T42" opacity="1" fill-opacity="0" stroke="#000000" stroke-width="1" stroke-opacity="0"></use></g></g><g><use xlink:href="#bfYndMhzW" opacity="1" fill="#ffffff" fill-opacity="1"></use><g><use xlink:href="#bfYndMhzW" opacity="1" fill-opacity="0" stroke="#000000" stroke-width="1" stroke-opacity="0"></use></g></g><g><use xlink:href="#a3r8AeMkXJ" opacity="1" fill="#ffffff" fill-opacity="1"></use><g><use xlink:href="#a3r8AeMkXJ" opacity="1" fill-opacity="0" stroke="#000000" stroke-width="1" stroke-opacity="0"></use></g></g><g><use xlink:href="#a3fEtbMDA4" opacity="1" fill="#ffffff" fill-opacity="1"></use><g><use xlink:href="#a3fEtbMDA4" opacity="1" fill-opacity="0" stroke="#000000" stroke-width="1" stroke-opacity="0"></use></g></g><g><use xlink:href="#aawaGt4BRR" opacity="1" fill="#ffffff" fill-opacity="1"></use><g><use xlink:href="#aawaGt4BRR" opacity="1" fill-opacity="0" stroke="#000000" stroke-width="1" stroke-opacity="0"></use></g></g><g><use xlink:href="#c2RuXT7g3I" opacity="1" fill="#ffffff" fill-opacity="1"></use><g><use xlink:href="#c2RuXT7g3I" opacity="1" fill-opacity="0" stroke="#000000" stroke-width="1" stroke-opacity="0"></use></g></g><g><use xlink:href="#a4rt1JXpCl" opacity="1" fill="#ffffff" fill-opacity="1"></use><g><use xlink:href="#a4rt1JXpCl" opacity="1" fill-opacity="0" stroke="#000000" stroke-width="1" stroke-opacity="0"></use></g></g><g><use xlink:href="#d2KS7dR7Yk" opacity="1" fill="#ffffff" fill-opacity="1"></use><g><use xlink:href="#d2KS7dR7Yk" opacity="1" fill-opacity="0" stroke="#000000" stroke-width="1" stroke-opacity="0"></use></g></g><g><use xlink:href="#b2pTXkzvr" opacity="1" fill="#ffffff" fill-opacity="1"></use><g><use xlink:href="#b2pTXkzvr" opacity="1" fill-opacity="0" stroke="#000000" stroke-width="1" stroke-opacity="0"></use></g></g><g><use xlink:href="#e22dXhC4GK" opacity="1" fill="#ffffff" fill-opacity="1"></use><g><use xlink:href="#e22dXhC4GK" opacity="1" fill-opacity="0" stroke="#000000" stroke-width="1" stroke-opacity="0"></use></g></g><g><use xlink:href="#a67EUPK56w" opacity="1" fill="#ffffff" fill-opacity="1"></use><g><use xlink:href="#a67EUPK56w" opacity="1" fill-opacity="0" stroke="#000000" stroke-width="1" stroke-opacity="0"></use></g></g><g><use xlink:href="#bEW5gUFJC" opacity="1" fill="#ffffff" fill-opacity="1"></use><g><use xlink:href="#bEW5gUFJC" opacity="1" fill-opacity="0" stroke="#000000" stroke-width="1" stroke-opacity="0"></use></g></g><g><use xlink:href="#d55rfUZVFZ" opacity="1" fill="#ffffff" fill-opacity="1"></use><g><use xlink:href="#d55rfUZVFZ" opacity="1" fill-opacity="0" stroke="#000000" stroke-width="1" stroke-opacity="0"></use></g></g><g><use xlink:href="#b9wWowpqu" opacity="1" fill="#ffffff" fill-opacity="1"></use><g><use xlink:href="#b9wWowpqu" opacity="1" fill-opacity="0" stroke="#000000" stroke-width="1" stroke-opacity="0"></use></g></g><g><use xlink:href="#d5CFWUMqZY" opacity="1" fill="#ffffff" fill-opacity="1"></use><g><use xlink:href="#d5CFWUMqZY" opacity="1" fill-opacity="0" stroke="#000000" stroke-width="1" stroke-opacity="0"></use></g></g></g></svg>