<svg width="40px" height="40px" viewBox="0px 0px 40px 40px" enable-background="new 0px 0px 40px 40px" xml:space="preserve" xmlns="http://www.w3.org/2000/svg" xmlns:svg="http://www.w3.org/2000/svg">
    <g>
        <path fill-rule="evenodd" clip-rule="evenodd" fill="#fff" d="m23.88047,8.29228l0,0c1.76455,1.04921 2.96821,2.96275 3.05792,5.17351c0.11389,3.43704 -2.58831,6.34285 -6.03004,6.47781c-3.28025,0.11467 -14.88709,-8.28136 -14.37536,5.55731c0.04446,1.72008 -1.29494,3.19678 -3.0119,3.23734c-1.71852,0.06397 -3.19366,-1.27465 -3.26231,-2.99084c-0.15446,-4.73198 17.18912,-21.38674 23.62168,-17.45513"></path>
        <path fill-rule="evenodd" clip-rule="evenodd" fill="#fff" d="m9.43647,27.643l0,0c0.01794,-2.02821 1.09524,-4.06033 2.94793,-5.22265c2.92375,-1.83163 6.78126,-0.96184 8.61757,1.96581c1.73724,2.7927 0.26679,17.03466 12.00937,9.6699c1.47514,-0.94156 3.41442,-0.49691 4.32712,0.97978c0.91894,1.44861 0.47195,3.3918 -0.99773,4.30762c-3.99948,2.49782 -27.10631,-4.19528 -26.90427,-11.70046"></path>
        <path fill-rule="evenodd" clip-rule="evenodd" fill="#fff" d="m33.90297,30.10338l0,0c-1.78561,0.979 -4.06033,1.07027 -6.0043,0.06475c-3.0353,-1.60853 -4.22493,-5.40129 -2.59143,-8.44127c1.51882,-2.90113 14.62343,-8.77281 2.36755,-15.26778c-1.5157,-0.8027 -2.11948,-2.70143 -1.31756,-4.21869c0.80583,-1.51726 2.72249,-2.1226 4.24209,-1.29494c4.17344,2.18735 9.90939,25.5633 3.30365,29.15792"></path>
    </g>
</svg>