<svg width="120px" height="40px" viewBox="0 0 120 40" enable-background="new 0 0 120 40" xml:space="preserve" xmlns="http://www.w3.org/2000/svg" xmlns:svg="http://www.w3.org/2000/svg">
    <g>
        <path fill-rule="evenodd" clip-rule="evenodd" fill="#fff" d="m6.83902,13.32492c1.23048,0 2.24211,-1.01163 2.24211,-2.24287c0,-1.24655 -1.01163,-2.23905 -2.24211,-2.23905c-1.24961,0 -2.23752,0.9925 -2.23752,2.23905c0,1.23048 0.98867,2.24287 2.23752,2.24287"></path>
        <path fill-rule="evenodd" clip-rule="evenodd" fill="#fff" d="m22.85517,18.59196c0,0.13927 -0.0176,0.33746 -0.05969,0.57545c-0.01913,0.23798 -0.05969,0.47673 -0.09871,0.73385c-0.04056,0.25788 -0.08035,0.51423 -0.13774,0.75145c-0.04056,0.23798 -0.07958,0.4576 -0.11938,0.61524l-1.7845,8.44196l-4.51789,0l1.76384,-8.32335c0.04056,-0.29308 0.09871,-0.61601 0.1584,-0.93204c0.06122,-0.33517 0.07958,-0.57315 0.07958,-0.75222c0,-0.45454 -0.10024,-0.8119 -0.33517,-1.09121c-0.24028,-0.25482 -0.57545,-0.39486 -1.05371,-0.39486c-0.39639,0 -0.79201,0.11784 -1.21059,0.35659c-0.43312,0.23952 -0.83256,0.55402 -1.18533,0.97184c-0.37802,0.39562 -0.69635,0.84634 -0.9925,1.3644c-0.27778,0.515 -0.47673,1.05295 -0.57545,1.58937l-1.5052,7.21148l-4.32275,0l2.93387,-14.58671l4.50029,0l-0.61448,2.79154c0.33517,-0.43159 0.71166,-0.82797 1.12718,-1.22436c0.41858,-0.37955 0.85476,-0.71472 1.32996,-0.9925c0.4752,-0.29767 0.94888,-0.51423 1.4677,-0.6711c0.49357,-0.17906 0.9879,-0.25788 1.50214,-0.25788c1.19452,0 2.10284,0.33517 2.71884,1.00933c0.61294,0.65197 0.93128,1.60621 0.93128,2.81373"></path>
        <path fill-rule="evenodd" clip-rule="evenodd" fill="#fff" d="m8.14908,15.12396l-3.05401,14.58595l-4.27914,0l2.53366,-12.0477c0.28084,-1.58861 -0.07499,-1.78603 -0.65197,-2.53748l5.45146,0l0,-0.00077z"></path>
        <path fill-rule="evenodd" clip-rule="evenodd" fill="#fff" d="m107.66731,19.09012c-3.41061,0 -5.05431,1.42485 -5.74837,4.6166l-1.24655,6.00319l-4.45973,0l3.12977,-14.58595l4.39851,0l-0.59152,2.81756l0.0176,0c1.22972,-2.2643 2.87418,-2.83745 5.33285,-2.85582l-0.83256,4.00442z"></path>
        <path fill-rule="evenodd" clip-rule="evenodd" fill="#fff" d="m90.04801,24.06332c2.6362,-0.11861 6.28326,-0.89072 6.52048,-5.01528c0.01913,-0.5127 -0.10024,-0.9902 -0.29767,-1.46387c-0.17753,-0.47903 -0.47673,-0.89378 -0.89072,-1.27333c-0.41858,-0.3543 -0.93434,-0.65274 -1.58708,-0.87159c-0.63361,-0.21579 -1.40954,-0.3168 -2.31787,-0.3168l-1.42714,0l-4.20261,0c0.41705,0.55708 0.73385,0.83409 0.79201,1.52586c-0.45454,0.3191 -0.86853,0.69329 -1.24808,1.1134c-0.73232,0.79354 -1.28864,1.74165 -1.68426,2.81373c-0.39868,1.04836 -0.59305,2.18089 -0.59305,3.36852c0,0.79124 0.11784,1.52509 0.33364,2.23752c0.23875,0.69712 0.59764,1.2917 1.07131,1.82276c0.49434,0.51347 1.11034,0.93587 1.86409,1.23125c0.75451,0.3168 1.6437,0.47367 2.69436,0.47367c0.3168,-0.0199 0.6558,-0.0199 0.9726,-0.0199c1.24808,0 2.49769,-0.01837 3.74577,-0.07882l0.63361,-3.20935c-1.42561,0.07958 -2.8321,0.25788 -4.25924,0.23875l-0.11938,0c-0.4974,-0.01683 -0.91138,-0.07958 -1.24808,-0.21656c-0.35736,-0.1408 -0.6558,-0.31757 -0.87312,-0.55632c-0.21962,-0.21809 -0.37802,-0.47367 -0.4576,-0.75145c-0.09871,-0.27931 -0.13621,-0.55861 -0.13621,-0.85476l0,-0.11478c0,-0.16299 1.18763,-0.02449 2.71425,-0.08264zm-1.94291,-4.08171c0.21656,-0.41858 0.49434,-0.77594 0.79201,-1.07131c0.29614,-0.31833 0.63514,-0.55402 1.01163,-0.71472c0.0375,-0.03903 0.09871,-0.05969 0.13927,-0.08188c0.3168,-0.11478 0.65197,-0.19896 1.00857,-0.19896c0.43924,0 0.79354,0.12397 1.04912,0.34129c0.24028,0.23952 0.36042,0.515 0.36042,0.83103c0,1.62687 -1.15243,2.14263 -2.41811,2.26047c-0.89531,0.09718 -1.82353,0 -2.41811,0c0.09642,-0.47673 0.25788,-0.93281 0.4752,-1.36593z"></path>
        <path fill-rule="evenodd" clip-rule="evenodd" fill="#fff" d="m69.61345,18.59196c0,0.13927 -0.02219,0.33746 -0.04209,0.57545c-0.0375,0.23798 -0.05969,0.47673 -0.11784,0.73385c-0.04056,0.25788 -0.07958,0.51423 -0.1408,0.75145c-0.0375,0.23798 -0.07958,0.4576 -0.11784,0.61524l-1.78144,8.44196l-4.50029,0l1.74242,-8.32335c0.05969,-0.29308 0.11784,-0.61601 0.18059,-0.93204c0.0375,-0.33517 0.07805,-0.57315 0.07805,-0.75222c0,-0.45454 -0.11938,-0.8119 -0.35583,-1.09121c-0.22115,-0.25482 -0.57392,-0.39486 -1.05371,-0.39486c-0.37649,0 -0.79048,0.11784 -1.20905,0.35659c-0.41399,0.23952 -0.81037,0.55402 -1.18533,0.97184c-0.37802,0.39562 -0.69482,0.84634 -0.9726,1.3644c-0.27778,0.515 -0.47673,1.05295 -0.59611,1.58937l-1.5052,7.21148l-4.32046,0l2.953,-14.58671l4.48192,0l-0.6206,2.79154c0.34206,-0.43159 0.71778,-0.82797 1.13406,-1.22436c0.41552,-0.37955 0.87006,-0.71472 1.32384,-0.9925c0.4798,-0.29767 0.95347,-0.51423 1.47076,-0.6711c0.49357,-0.17906 1.0101,-0.25788 1.50673,-0.25788c1.20905,0 2.11814,0.33517 2.73338,1.00933c0.59611,0.65197 0.91444,1.60621 0.91444,2.81373"></path>
        <path fill-rule="evenodd" clip-rule="evenodd" fill="#fff" d="m82.19528,19.34647c-0.31221,-0.23875 -0.8119,-0.51423 -1.28405,-0.69635c-0.49587,-0.17906 -1.02999,-0.25405 -1.6085,-0.25405c-0.65427,0 -1.24655,0.15993 -1.7845,0.4576c-0.53336,0.31374 -0.99097,0.71013 -1.36593,1.20523c-0.35736,0.49663 -0.63361,1.02999 -0.85169,1.6437c-0.19743,0.59688 -0.29767,1.19375 -0.29767,1.7845c0,0.93357 0.21962,1.64676 0.65197,2.16176c0.44077,0.515 1.09274,0.75222 1.96051,0.75222c0.26324,0 0.55785,-0.01683 0.85629,-0.07958c0.27625,-0.06045 0.57545,-0.11784 0.87465,-0.21579c0.55632,-0.17906 1.06825,-0.43847 1.58248,-0.71395l-0.69482,3.28817c-0.60988,0.31833 -1.26874,0.57851 -1.96051,0.75451c-0.69329,0.15534 -1.40648,0.25788 -2.10284,0.25788c-0.89072,0 -1.68273,-0.14004 -2.37602,-0.42011c-0.67416,-0.27395 -1.24808,-0.67263 -1.70569,-1.18763c-0.4752,-0.49357 -0.81037,-1.10575 -1.04912,-1.80363c-0.23798,-0.71166 -0.33746,-1.46617 -0.33746,-2.3194c0,-0.77288 0.08188,-1.54575 0.25865,-2.27807c0.17753,-0.73615 0.43618,-1.42561 0.77288,-2.07988c0.33746,-0.65503 0.73385,-1.25344 1.22819,-1.8044c0.37496,-0.41475 0.79201,-0.76982 1.22972,-1.10881c0,-0.75298 -0.31833,-0.9925 -0.73538,-1.56641l5.47136,0c1.11034,0 2.3194,0.07958 3.36852,0.51423c0.23645,0.10024 0.4752,0.19972 0.61601,0.27931l-0.71702,3.42897z"></path>
        <path fill-rule="evenodd" clip-rule="evenodd" fill="#fff" d="m115.21931,29.67088c-0.89531,0.03903 -1.7669,0.02143 -2.65456,0.02143c-0.59764,0 -1.11034,-0.08111 -1.54805,-0.23952c-0.41705,-0.1584 -0.77288,-0.37496 -1.04912,-0.6558c-0.27778,-0.27472 -0.47673,-0.60988 -0.61754,-1.00704c-0.11478,-0.39639 -0.19437,-0.81267 -0.19437,-1.29093c0,-0.19819 0.0176,-0.41399 0.03903,-0.65274c0.0176,-0.23645 0.05816,-0.49587 0.09718,-0.75069c0.01913,-0.28007 0.05816,-0.53413 0.11938,-0.81343c0.03903,-0.27701 0.09718,-0.53642 0.1584,-0.7943c0.01913,-0.11555 0.07958,-0.39562 0.176,-0.8494c0.29767,-1.45163 0.51576,-2.49922 0.75604,-3.54529l-1.17003,0l0.79354,-3.96692l1.24655,0l0.11938,-0.59458l0.05969,-0.33517c0.33593,-1.51132 0.05969,-1.62763 -0.39639,-2.24364l5.15608,0l-0.65886,3.17262l2.50228,0l-0.7966,3.96692l-2.53595,0l-0.93128,4.29521c-0.05969,0.3191 -0.13774,0.67569 -0.21656,1.07055c-0.08035,0.37496 -0.11938,0.73155 -0.11938,1.01086c0,0.33746 0.10024,0.57545 0.3168,0.71242c0.21656,0.13774 0.37649,0.21962 0.73538,0.20278c0.35277,-0.02066 0.86853,-0.06504 1.28864,-0.08341l-0.67569,3.37005z"></path>
        <path fill-rule="evenodd" clip-rule="evenodd" fill="#fff" d="m52.94151,18.53533c-0.27778,-0.71702 -0.6535,-1.33073 -1.1685,-1.84496c-0.51576,-0.4974 -1.15243,-0.89149 -1.88169,-1.17156c-0.75451,-0.27625 -1.6085,-0.41475 -2.57651,-0.41475c-0.39792,0 -0.77288,0.0199 -1.1509,0.05816c-0.53183,0.06122 -1.04912,0.1607 -1.52586,0.3015c-0.79201,0.25865 -1.4853,0.57239 -2.09978,1.0078c-0.61448,0.41628 -1.14784,0.91291 -1.56641,1.48836c-0.4576,0.55402 -0.8119,1.14707 -1.11034,1.80134c-0.27625,0.63208 -0.49434,1.30777 -0.61754,2.00183c-0.13621,0.691 -0.21503,1.36975 -0.21503,2.04391c0,0.82797 0.11938,1.60391 0.37802,2.3148c0.23798,0.73232 0.61294,1.35062 1.10728,1.88169c0.4974,0.51729 1.11034,0.93587 1.88628,1.23125c0.75145,0.29461 1.66054,0.45684 2.67523,0.45684c0.37649,0 0.75298,-0.02143 1.08815,-0.06045c0.59458,-0.05816 1.1509,-0.16146 1.66513,-0.33746c0.79354,-0.23798 1.50826,-0.57315 2.12044,-1.0101c0.59458,-0.43618 1.13177,-0.92975 1.54575,-1.52586c0.43771,-0.57621 0.79354,-1.18839 1.04912,-1.84496c0.27778,-0.63361 0.48133,-1.28864 0.61448,-1.98117c0.12091,-0.67569 0.17906,-1.32613 0.17906,-1.98423c-0.00077,-0.88843 -0.13621,-1.68349 -0.39639,-2.41199zm-4.16129,4.41611c-0.1584,0.6382 -0.37802,1.20905 -0.69482,1.72635c-0.29614,0.5127 -0.6711,0.93281 -1.12871,1.24885c-0.23798,0.17906 -0.49434,0.29614 -0.79354,0.37419c-0.23875,0.06275 -0.47214,0.10101 -0.74992,0.10101c-0.61601,0 -1.10881,-0.23798 -1.50673,-0.67493c-0.37802,-0.45454 -0.57698,-1.10728 -0.57698,-1.91918c0,-0.63973 0.07958,-1.2917 0.23798,-1.92531c0.17906,-0.6535 0.41399,-1.22972 0.71472,-1.74395c0.3168,-0.5127 0.69482,-0.93281 1.13177,-1.27027c0.23492,-0.15534 0.49434,-0.29308 0.74992,-0.37343c0.25865,-0.06275 0.51576,-0.09871 0.77594,-0.09871c0.33517,0 0.63361,0.05739 0.88919,0.1959c0.25712,0.12091 0.4752,0.2992 0.63514,0.5326c0.17753,0.23952 0.3168,0.51959 0.41399,0.83716c0.08035,0.31604 0.1408,0.67263 0.1408,1.04683c-0.00077,0.65274 -0.08035,1.29093 -0.23875,1.94291z"></path>
        <path fill-rule="evenodd" clip-rule="evenodd" fill="#fff" d="m39.5034,16.07361l-1.08815,-0.55173c-0.26018,-0.1408 -0.55479,-0.26018 -0.87312,-0.35966c-0.3168,-0.09948 -0.67569,-0.17677 -1.05218,-0.25482c-0.37496,-0.05969 -0.77135,-0.07958 -1.20905,-0.07958c-1.02999,0 -1.92071,0.17447 -2.71425,0.53413c-0.77135,0.35583 -1.42714,0.83103 -1.98193,1.4478c-0.53336,0.61294 -0.93128,1.3093 -1.22742,2.12044c-0.27931,0.7943 -0.41705,1.646 -0.41705,2.51529c-0.02219,0.75375 0.07805,1.38735 0.29767,1.96204c0.1959,0.57621 0.49434,1.05142 0.89225,1.42638c0.37802,0.38032 0.85016,0.67646 1.40495,0.87618c0.53795,0.19513 1.1509,0.29232 1.84266,0.29232c0.41705,0 0.83256,-0.01683 1.21059,-0.07576c0.37649,-0.07958 0.73232,-0.1607 1.07131,-0.25941c0.33593,-0.09718 0.6535,-0.21656 0.9703,-0.33593l1.05065,-0.51576l-0.85169,4.08324c-0.61754,0.25712 -1.3093,0.4576 -2.06228,0.59305c-0.75298,0.1408 -1.58555,0.21809 -2.51682,0.21809c-1.26874,0 -2.37908,-0.19666 -3.37005,-0.55479c-1.0101,-0.37802 -1.83807,-0.91138 -2.51682,-1.60315c-0.67416,-0.6734 -1.21059,-1.50749 -1.56488,-2.45714c-0.35736,-0.95117 -0.51576,-2.04085 -0.51576,-3.21088c0.0176,-0.95347 0.11784,-1.86638 0.33517,-2.777c0.19896,-0.89072 0.51729,-1.74624 0.93434,-2.53748c0.39792,-0.81037 0.93281,-1.54269 1.54422,-2.21992c0.45913,-0.49587 0.99097,-0.94964 1.56795,-1.34603c0.23798,-1.21135 -0.02066,-1.42714 -0.43618,-2.00336c2.33929,0 4.79872,-0.0551 7.21454,0.07958c1.68732,0.08035 3.34939,0.25788 4.9533,0.8119l-0.89225,4.18195z"></path>
    </g>
</svg>